<?xml version="1.0" encoding="utf-8"?>
<!-- Generator: Adobe Illustrator 19.2.1, SVG Export Plug-In . SVG Version: 6.00 Build 0)  -->
<svg version="1.1" id="Layer_1" xmlns="http://www.w3.org/2000/svg" xmlns:xlink="http://www.w3.org/1999/xlink" x="0px" y="0px"
	 width="300.4px" height="17.3px" viewBox="0 0 300.4 17.3" style="enable-background:new 0 0 300.4 17.3;" xml:space="preserve">
<style type="text/css">
	.st0{fill:#FFFFFF;}
</style>
<g>
	<path class="st0" d="M3.9,3.8H0.5C0.2,3.8,0,3.6,0,3.3V0.7c0-0.2,0.2-0.5,0.5-0.5h10.7c0.3,0,0.5,0.2,0.5,0.5v2.6
		c0,0.2-0.2,0.5-0.5,0.5H7.7v12.8c0,0.2-0.2,0.5-0.5,0.5H4.3c-0.2,0-0.5-0.2-0.5-0.5V3.8z"/>
	<path class="st0" d="M16.1,0.7c0-0.2,0.2-0.5,0.5-0.5h2.9c0.3,0,0.5,0.2,0.5,0.5v6h6.9v-6c0-0.2,0.2-0.5,0.5-0.5h2.9
		c0.2,0,0.5,0.2,0.5,0.5v15.9c0,0.2-0.2,0.5-0.5,0.5h-2.9c-0.3,0-0.5-0.2-0.5-0.5v-6.3h-6.9v6.3c0,0.2-0.2,0.5-0.5,0.5h-2.9
		c-0.2,0-0.5-0.2-0.5-0.5V0.7z"/>
	<path class="st0" d="M36.8,0.7c0-0.2,0.2-0.5,0.5-0.5h9.9c0.3,0,0.5,0.2,0.5,0.5v2.6c0,0.2-0.2,0.5-0.5,0.5h-6.6v3H46
		c0.2,0,0.5,0.2,0.5,0.5v2.6c0,0.3-0.2,0.5-0.5,0.5h-5.5v3.2h6.6c0.3,0,0.5,0.2,0.5,0.5v2.6c0,0.2-0.2,0.5-0.5,0.5h-9.9
		c-0.3,0-0.5-0.2-0.5-0.5V0.7z"/>
	<path class="st0" d="M60.5,0.7c0-0.2,0.2-0.5,0.4-0.5h5.9c4.6,0,8.4,3.8,8.4,8.4c0,4.7-3.8,8.4-8.4,8.4h-5.9
		c-0.2,0-0.4-0.2-0.4-0.5V0.7z M66.6,13.5c2.7,0,4.7-2.1,4.7-4.9c0-2.7-2-4.8-4.7-4.8h-2.3v9.7H66.6z"/>
	<path class="st0" d="M78,16.4l7.5-16.2C85.6,0.1,85.7,0,85.9,0h0.2c0.2,0,0.3,0.1,0.4,0.3l7.5,16.2c0.1,0.3,0,0.6-0.4,0.6H91
		c-0.4,0-0.6-0.1-0.8-0.6l-0.9-1.9h-6.5l-0.9,1.9C81.8,16.8,81.5,17,81,17h-2.6C78,17,77.8,16.7,78,16.4z M87.8,11.3l-1.8-4h0
		l-1.8,4H87.8z"/>
	<path class="st0" d="M100,9l-5.3-8c-0.2-0.3,0-0.7,0.4-0.7h3.1c0.2,0,0.3,0.1,0.4,0.2l3.3,4.9l3.3-4.9c0.1-0.1,0.2-0.2,0.4-0.2h3.1
		c0.4,0,0.6,0.4,0.4,0.7l-5.4,8v7.7c0,0.2-0.2,0.5-0.5,0.5h-2.9c-0.3,0-0.5-0.2-0.5-0.5V9z"/>
	<path class="st0" d="M116.2,3.8h-3.4c-0.3,0-0.5-0.2-0.5-0.5V0.7c0-0.2,0.2-0.5,0.5-0.5h10.7c0.3,0,0.5,0.2,0.5,0.5v2.6
		c0,0.2-0.2,0.5-0.5,0.5H120v12.8c0,0.2-0.2,0.5-0.5,0.5h-2.9c-0.2,0-0.5-0.2-0.5-0.5V3.8z"/>
	<path class="st0" d="M128.4,0.7c0-0.2,0.2-0.5,0.5-0.5h7.2c2.9,0,5.2,2.3,5.2,5.2c0,2.2-1.5,4-3.6,4.8l3.3,6.1
		c0.2,0.3,0,0.7-0.4,0.7h-3.2c-0.2,0-0.3-0.1-0.4-0.2l-3.2-6.4h-1.7v6.1c0,0.2-0.2,0.5-0.5,0.5h-2.9c-0.3,0-0.5-0.2-0.5-0.5V0.7z
		 M135.8,7.4c1,0,1.8-0.9,1.8-1.9c0-1-0.8-1.8-1.8-1.8h-3.6v3.7H135.8z"/>
	<path class="st0" d="M146.7,0.7c0-0.2,0.2-0.5,0.5-0.5h2.9c0.2,0,0.5,0.2,0.5,0.5v15.9c0,0.2-0.2,0.5-0.5,0.5h-2.9
		c-0.2,0-0.5-0.2-0.5-0.5V0.7z"/>
	<path class="st0" d="M156.8,0.7c0-0.2,0.2-0.5,0.5-0.5h5.8c3,0,5.4,2.4,5.4,5.3c0,3-2.4,5.4-5.4,5.4h-2.5v5.6
		c0,0.2-0.2,0.5-0.5,0.5h-2.8c-0.3,0-0.5-0.2-0.5-0.5V0.7z M162.8,7.4c1,0,1.9-0.8,1.9-1.9c0-1-0.9-1.8-1.9-1.8h-2.3v3.7H162.8z"/>
	<path class="st0" d="M178.2,14.9l1.6-1.6c0.2-0.2,0.5-0.2,0.6,0c0.3,0.3,0.6,0.5,1.2,0.5c0.7,0,1.4-0.6,1.4-1.8V0.7
		c0-0.2,0.2-0.5,0.5-0.5h2.9c0.3,0,0.5,0.2,0.5,0.5V12c0,3.3-2.4,5.3-5.2,5.3c-2.1,0-3.2-1.2-3.6-1.8C178,15.3,178,15.1,178.2,14.9z
		"/>
	<path class="st0" d="M200.3,0c4.8,0,8.6,3.9,8.6,8.7c0,4.8-3.8,8.6-8.6,8.6c-4.8,0-8.6-3.8-8.6-8.6C191.6,3.9,195.5,0,200.3,0z
		 M200.3,13.4c2.6,0,4.8-2.2,4.8-4.8c0-2.6-2.2-4.8-4.8-4.8c-2.6,0-4.8,2.2-4.8,4.8C195.5,11.3,197.6,13.4,200.3,13.4z"/>
	<path class="st0" d="M213.7,0.7c0-0.2,0.2-0.5,0.5-0.5h3c0.3,0,0.5,0.2,0.5,0.5v9.7c0,1.7,1.2,3,3,3c1.7,0,3-1.3,3-3V0.7
		c0-0.2,0.2-0.5,0.5-0.5h3c0.2,0,0.5,0.2,0.5,0.5v9.9c0,3.6-3.1,6.7-6.9,6.7c-3.8,0-6.8-3-6.8-6.7V0.7z"/>
	<path class="st0" d="M233.4,0.7c0-0.2,0.2-0.5,0.5-0.5h7.2c2.9,0,5.2,2.3,5.2,5.2c0,2.2-1.5,4-3.6,4.8l3.3,6.1
		c0.2,0.3,0,0.7-0.4,0.7h-3.2c-0.2,0-0.3-0.1-0.4-0.2l-3.2-6.4h-1.7v6.1c0,0.2-0.2,0.5-0.5,0.5h-2.9c-0.3,0-0.5-0.2-0.5-0.5V0.7z
		 M240.7,7.4c1,0,1.8-0.9,1.8-1.9c0-1-0.8-1.8-1.8-1.8h-3.6v3.7H240.7z"/>
	<path class="st0" d="M251.6,0.4c0-0.2,0.2-0.4,0.5-0.4h0.6l9.6,9.2h0V0.7c0-0.2,0.2-0.5,0.5-0.5h2.9c0.2,0,0.5,0.2,0.5,0.5v16.2
		c0,0.2-0.2,0.4-0.5,0.4h-0.4c-0.1,0-0.3-0.1-0.3-0.1l-9.5-9.5h0v9c0,0.2-0.2,0.5-0.5,0.5h-2.9c-0.2,0-0.5-0.2-0.5-0.5L251.6,0.4z"
		/>
	<path class="st0" d="M270.2,16.4l7.5-16.2c0.1-0.1,0.2-0.3,0.4-0.3h0.2c0.2,0,0.3,0.1,0.4,0.3l7.5,16.2c0.1,0.3,0,0.6-0.4,0.6h-2.7
		c-0.4,0-0.6-0.1-0.8-0.6l-0.9-1.9H275l-0.9,1.9c-0.1,0.3-0.4,0.6-0.9,0.6h-2.6C270.3,17,270.1,16.7,270.2,16.4z M280.1,11.3l-1.8-4
		h0l-1.8,4H280.1z"/>
	<path class="st0" d="M290.4,0.7c0-0.2,0.2-0.5,0.5-0.5h2.9c0.2,0,0.5,0.2,0.5,0.5v12.8h5.7c0.3,0,0.5,0.2,0.5,0.5v2.6
		c0,0.2-0.2,0.5-0.5,0.5h-9c-0.3,0-0.5-0.2-0.5-0.5V0.7z"/>
</g>
</svg>
